<svg width="400" height="400" viewBox="0 0 400 400" fill="none" xmlns="http://www.w3.org/2000/svg">
<rect width="400" height="400" fill="white"/>
<rect width="400" height="400" fill="white"/>
<path d="M114.688 246.31C112.781 249.421 110.638 253.031 108.818 255.908C108.035 257.231 107.803 258.808 108.17 260.301C108.538 261.794 109.477 263.083 110.785 263.891L148.941 287.372C149.604 287.781 150.342 288.054 151.112 288.176C151.881 288.297 152.667 288.264 153.424 288.078C154.181 287.892 154.893 287.558 155.519 287.094C156.145 286.63 156.673 286.046 157.071 285.376C158.597 282.822 160.564 279.506 162.706 275.954C177.822 251.006 193.026 254.059 220.439 267.149L258.272 285.141C258.982 285.479 259.751 285.671 260.536 285.705C261.321 285.74 262.105 285.617 262.841 285.343C263.577 285.069 264.251 284.651 264.822 284.112C265.394 283.573 265.851 282.925 266.168 282.206L284.336 241.115C284.953 239.704 284.991 238.108 284.442 236.669C283.893 235.231 282.801 234.066 281.401 233.425C273.417 229.668 257.539 222.184 243.245 215.286C191.822 190.309 148.119 191.923 114.688 246.31Z" fill="url(#paint0_linear)"/>
<path d="M285.772 153.063C287.68 149.952 289.823 146.342 291.643 143.465C292.426 142.142 292.658 140.565 292.291 139.072C291.923 137.579 290.984 136.29 289.676 135.482L251.52 112.001C250.852 111.551 250.099 111.244 249.307 111.098C248.515 110.951 247.701 110.97 246.916 111.151C246.132 111.333 245.393 111.674 244.746 112.154C244.099 112.633 243.557 113.241 243.155 113.939C241.629 116.492 239.662 119.809 237.52 123.36C222.404 148.308 207.2 145.256 179.787 132.165L142.071 114.261C141.362 113.924 140.592 113.732 139.807 113.697C139.023 113.663 138.239 113.786 137.503 114.06C136.767 114.333 136.093 114.752 135.521 115.291C134.95 115.83 134.492 116.478 134.176 117.196L116.008 158.288C115.391 159.698 115.353 161.295 115.902 162.733C116.451 164.172 117.543 165.337 118.943 165.977C126.926 169.734 142.805 177.219 157.099 184.116C208.639 209.064 252.342 207.391 285.772 153.063Z" fill="url(#paint1_linear)"/>
<defs>
<linearGradient id="paint0_linear" x1="283.309" y1="299.494" x2="167.872" y2="233.161" gradientUnits="userSpaceOnUse">
<stop offset="0.18" stop-color="#0052CC"/>
<stop offset="1" stop-color="#2684FF"/>
</linearGradient>
<linearGradient id="paint1_linear" x1="-48571.3" y1="138578" x2="-44574.7" y2="143164" gradientUnits="userSpaceOnUse">
<stop offset="0.18" stop-color="#0052CC"/>
<stop offset="1" stop-color="#2684FF"/>
</linearGradient>
</defs>
</svg>
