<?xml version="1.0" standalone="no"?>
<!DOCTYPE svg PUBLIC "-//W3C//DTD SVG 20010904//EN"
 "http://www.w3.org/TR/2001/REC-SVG-20010904/DTD/svg10.dtd">
<svg version="1.0" xmlns="http://www.w3.org/2000/svg"
 width="535.000000pt" height="535.000000pt" viewBox="0 0 535.000000 535.000000"
 preserveAspectRatio="xMidYMid meet">
<metadata>
Created by potrace 1.14, written by Peter Selinger 2001-2017
</metadata>
<g transform="translate(0.000000,535.000000) scale(0.100000,-0.100000)"
fill="#000000" stroke="none">
<path d="M1687 4903 c-3 -5 -19 -46 -37 -93 -17 -47 -35 -94 -40 -105 -11 -25
-124 -326 -143 -380 -8 -22 -96 -258 -197 -525 -213 -564 -271 -719 -306 -815
-14 -38 -29 -79 -35 -90 -8 -19 -58 -149 -119 -315 -60 -163 -422 -1126 -430
-1145 -14 -31 -261 -688 -265 -705 -2 -8 -27 -73 -54 -145 -28 -71 -51 -133
-51 -137 0 -4 423 -8 939 -8 l939 0 22 73 c11 39 30 101 40 137 11 36 51 169
88 295 l68 230 550 3 550 2 77 -257 c43 -142 93 -307 112 -368 l33 -110 961
-3 961 -2 -11 27 c-14 35 -14 35 -259 688 -111 297 -208 554 -215 570 -8 17
-25 62 -39 100 -13 39 -35 99 -49 135 -44 119 -293 779 -447 1190 -84 223
-165 439 -180 480 -39 105 -406 1081 -436 1160 -14 36 -30 77 -36 93 l-10 27
-989 0 c-543 0 -990 -3 -992 -7z m1053 -2173 c17 -58 47 -154 67 -215 19 -60
41 -132 49 -160 7 -27 25 -85 38 -127 l24 -78 -254 0 c-238 0 -255 1 -250 18
2 9 23 76 45 147 22 72 60 200 86 285 25 85 50 166 55 180 5 14 21 65 36 114
l26 90 23 -75 c13 -41 37 -121 55 -179z"/>
</g>
</svg>
