<svg width="163" height="24" viewBox="0 0 163 24" fill="none" xmlns="http://www.w3.org/2000/svg">
<path d="M16.4 1.7V18.5H12.512V11.612H4.88V18.5H0.992V1.7H4.88V8.324H12.512V1.7H16.4ZM26.2548 18.692C24.8948 18.692 23.6708 18.412 22.5828 17.852C21.5108 17.276 20.6708 16.484 20.0628 15.476C19.4548 14.468 19.1508 13.324 19.1508 12.044C19.1508 10.764 19.4548 9.62 20.0628 8.612C20.6708 7.604 21.5108 6.82 22.5828 6.26C23.6708 5.684 24.8948 5.396 26.2548 5.396C27.6148 5.396 28.8308 5.684 29.9028 6.26C30.9748 6.82 31.8148 7.604 32.4228 8.612C33.0308 9.62 33.3348 10.764 33.3348 12.044C33.3348 13.324 33.0308 14.468 32.4228 15.476C31.8148 16.484 30.9748 17.276 29.9028 17.852C28.8308 18.412 27.6148 18.692 26.2548 18.692ZM26.2548 15.62C27.2148 15.62 27.9988 15.3 28.6068 14.66C29.2308 14.004 29.5428 13.132 29.5428 12.044C29.5428 10.956 29.2308 10.092 28.6068 9.452C27.9988 8.796 27.2148 8.468 26.2548 8.468C25.2948 8.468 24.5028 8.796 23.8788 9.452C23.2548 10.092 22.9428 10.956 22.9428 12.044C22.9428 13.132 23.2548 14.004 23.8788 14.66C24.5028 15.3 25.2948 15.62 26.2548 15.62ZM52.3734 5.396C53.9894 5.396 55.2694 5.876 56.2134 6.836C57.1734 7.78 57.6534 9.204 57.6534 11.108V18.5H53.9094V11.684C53.9094 10.66 53.6934 9.9 53.2614 9.404C52.8454 8.892 52.2454 8.636 51.4614 8.636C50.5814 8.636 49.8854 8.924 49.3734 9.5C48.8614 10.06 48.6054 10.9 48.6054 12.02V18.5H44.8614V11.684C44.8614 9.652 44.0454 8.636 42.4134 8.636C41.5494 8.636 40.8614 8.924 40.3494 9.5C39.8374 10.06 39.5814 10.9 39.5814 12.02V18.5H35.8374V5.588H39.4134V7.076C39.8934 6.532 40.4774 6.116 41.1654 5.828C41.8694 5.54 42.6374 5.396 43.4694 5.396C44.3814 5.396 45.2054 5.58 45.9414 5.948C46.6774 6.3 47.2694 6.82 47.7174 7.508C48.2454 6.836 48.9094 6.316 49.7094 5.948C50.5254 5.58 51.4134 5.396 52.3734 5.396ZM73.7979 12.092C73.7979 12.14 73.7739 12.476 73.7259 13.1H63.9579C64.1339 13.9 64.5499 14.532 65.2059 14.996C65.8619 15.46 66.6779 15.692 67.6539 15.692C68.3259 15.692 68.9179 15.596 69.4299 15.404C69.9579 15.196 70.4459 14.876 70.8939 14.444L72.8859 16.604C71.6699 17.996 69.8939 18.692 67.5579 18.692C66.1019 18.692 64.8139 18.412 63.6939 17.852C62.5739 17.276 61.7099 16.484 61.1019 15.476C60.4939 14.468 60.1899 13.324 60.1899 12.044C60.1899 10.78 60.4859 9.644 61.0779 8.636C61.6859 7.612 62.5099 6.82 63.5499 6.26C64.6059 5.684 65.7819 5.396 67.0779 5.396C68.3419 5.396 69.4859 5.668 70.5099 6.212C71.5339 6.756 72.3339 7.54 72.9099 8.564C73.5019 9.572 73.7979 10.748 73.7979 12.092ZM67.1019 8.228C66.2539 8.228 65.5419 8.468 64.9659 8.948C64.3899 9.428 64.0379 10.084 63.9099 10.916H70.2699C70.1419 10.1 69.7899 9.452 69.2139 8.972C68.6379 8.476 67.9339 8.228 67.1019 8.228ZM88.8905 9.764C89.8505 10.068 90.6025 10.58 91.1465 11.3C91.6905 12.004 91.9625 12.876 91.9625 13.916C91.9625 15.388 91.3865 16.524 90.2345 17.324C89.0985 18.108 87.4345 18.5 85.2425 18.5H76.5545V1.7H84.7625C86.8105 1.7 88.3785 2.092 89.4665 2.876C90.5705 3.66 91.1225 4.724 91.1225 6.068C91.1225 6.884 90.9225 7.612 90.5225 8.252C90.1385 8.892 89.5945 9.396 88.8905 9.764ZM80.4185 4.628V8.588H84.2825C85.2425 8.588 85.9705 8.42 86.4665 8.084C86.9625 7.748 87.2105 7.252 87.2105 6.596C87.2105 5.94 86.9625 5.452 86.4665 5.132C85.9705 4.796 85.2425 4.628 84.2825 4.628H80.4185ZM84.9545 15.572C85.9785 15.572 86.7465 15.404 87.2585 15.068C87.7865 14.732 88.0505 14.212 88.0505 13.508C88.0505 12.116 87.0185 11.42 84.9545 11.42H80.4185V15.572H84.9545ZM107.65 5.588V18.5H104.098V16.964C103.602 17.524 103.01 17.956 102.322 18.26C101.634 18.548 100.89 18.692 100.09 18.692C98.3941 18.692 97.0501 18.204 96.0581 17.228C95.0661 16.252 94.5701 14.804 94.5701 12.884V5.588H98.3141V12.332C98.3141 14.412 99.1861 15.452 100.93 15.452C101.826 15.452 102.546 15.164 103.09 14.588C103.634 13.996 103.906 13.124 103.906 11.972V5.588H107.65ZM124.271 0.691999V18.5H120.695V17.012C119.767 18.132 118.423 18.692 116.663 18.692C115.447 18.692 114.343 18.42 113.351 17.876C112.375 17.332 111.607 16.556 111.047 15.548C110.487 14.54 110.207 13.372 110.207 12.044C110.207 10.716 110.487 9.548 111.047 8.54C111.607 7.532 112.375 6.756 113.351 6.212C114.343 5.668 115.447 5.396 116.663 5.396C118.311 5.396 119.599 5.916 120.527 6.956V0.691999H124.271ZM117.311 15.62C118.255 15.62 119.039 15.3 119.663 14.66C120.287 14.004 120.599 13.132 120.599 12.044C120.599 10.956 120.287 10.092 119.663 9.452C119.039 8.796 118.255 8.468 117.311 8.468C116.351 8.468 115.559 8.796 114.935 9.452C114.311 10.092 113.999 10.956 113.999 12.044C113.999 13.132 114.311 14.004 114.935 14.66C115.559 15.3 116.351 15.62 117.311 15.62ZM140.888 0.691999V18.5H137.312V17.012C136.384 18.132 135.04 18.692 133.28 18.692C132.064 18.692 130.96 18.42 129.968 17.876C128.992 17.332 128.224 16.556 127.664 15.548C127.104 14.54 126.824 13.372 126.824 12.044C126.824 10.716 127.104 9.548 127.664 8.54C128.224 7.532 128.992 6.756 129.968 6.212C130.96 5.668 132.064 5.396 133.28 5.396C134.928 5.396 136.216 5.916 137.144 6.956V0.691999H140.888ZM133.928 15.62C134.872 15.62 135.656 15.3 136.28 14.66C136.904 14.004 137.216 13.132 137.216 12.044C137.216 10.956 136.904 10.092 136.28 9.452C135.656 8.796 134.872 8.468 133.928 8.468C132.968 8.468 132.176 8.796 131.552 9.452C130.928 10.092 130.616 10.956 130.616 12.044C130.616 13.132 130.928 14.004 131.552 14.66C132.176 15.3 132.968 15.62 133.928 15.62ZM157.169 5.588L151.337 19.292C150.745 20.78 150.009 21.828 149.129 22.436C148.265 23.044 147.217 23.348 145.985 23.348C145.313 23.348 144.649 23.244 143.993 23.036C143.337 22.828 142.801 22.54 142.385 22.172L143.753 19.508C144.041 19.764 144.369 19.964 144.737 20.108C145.121 20.252 145.497 20.324 145.865 20.324C146.377 20.324 146.793 20.196 147.113 19.94C147.433 19.7 147.721 19.292 147.977 18.716L148.025 18.596L142.433 5.588H146.297L149.921 14.348L153.569 5.588H157.169Z" fill="white"/>
<path d="M160.113 18.692C159.457 18.692 158.905 18.468 158.457 18.02C158.009 17.572 157.785 17.012 157.785 16.34C157.785 15.652 158.009 15.1 158.457 14.684C158.905 14.252 159.457 14.036 160.113 14.036C160.769 14.036 161.321 14.252 161.769 14.684C162.217 15.1 162.441 15.652 162.441 16.34C162.441 17.012 162.217 17.572 161.769 18.02C161.321 18.468 160.769 18.692 160.113 18.692Z" fill="#FA8C16"/>
</svg>
