<?xml version="1.0" encoding="UTF-8"?> <svg xmlns="http://www.w3.org/2000/svg" width="390" height="85" viewBox="0 0 390 85" fill="none"> <path d="M0 3.482H13.932V67.682H0V3.482Z" fill="url(#paint0_linear_5403_69773)"></path> <path d="M54.5348 20.726C60.2681 20.726 64.8834 22.446 68.3808 25.886C71.9354 29.326 73.7128 34.4287 73.7128 41.194V67.682H60.2968V43.258C60.2968 39.5887 59.4941 36.8653 57.8887 35.088C56.2834 33.2533 53.9614 32.336 50.9228 32.336C47.5401 32.336 44.8454 33.3967 42.8387 35.518C40.8321 37.582 39.8288 40.678 39.8288 44.806V67.682H26.4128V21.414H39.2267V26.832C41.0041 24.8827 43.2114 23.392 45.8488 22.36C48.4861 21.2707 51.3814 20.726 54.5348 20.726Z" fill="url(#paint1_linear_5403_69773)"></path> <path d="M132.646 3.87V67.682H119.832V62.35C116.506 66.3633 111.69 68.37 105.384 68.37C101.026 68.37 97.0703 67.3953 93.5156 65.446C90.0183 63.4967 87.2663 60.716 85.2596 57.104C83.2529 53.492 82.2496 49.3067 82.2496 44.548C82.2496 39.7893 83.2529 35.604 85.2596 31.992C87.2663 28.38 90.0183 25.5993 93.5156 23.65C97.0703 21.7007 101.026 20.726 105.384 20.726C111.289 20.726 115.904 22.5893 119.23 26.316V3.87H132.646ZM107.706 57.362C111.088 57.362 113.898 56.2153 116.134 53.922C118.37 51.5713 119.488 48.4467 119.488 44.548C119.488 40.6493 118.37 37.5533 116.134 35.26C113.898 32.9093 111.088 31.734 107.706 31.734C104.266 31.734 101.428 32.9093 99.1916 35.26C96.9556 37.5533 95.8376 40.6493 95.8376 44.548C95.8376 48.4467 96.9556 51.5713 99.1916 53.922C101.428 56.2153 104.266 57.362 107.706 57.362Z" fill="url(#paint2_linear_5403_69773)"></path> <path d="M144.203 21.414H157.619V67.682H144.203V21.414ZM150.911 14.964C148.445 14.964 146.439 14.2473 144.891 12.814C143.343 11.3807 142.569 9.60333 142.569 7.482C142.569 5.36067 143.343 3.58334 144.891 2.15C146.439 0.716668 148.445 0 150.911 0C153.376 0 155.383 0.688002 156.931 2.064C158.479 3.44 159.253 5.16 159.253 7.224C159.253 9.46 158.479 11.3233 156.931 12.814C155.383 14.2473 153.376 14.964 150.911 14.964Z" fill="url(#paint3_linear_5403_69773)"></path> <path d="M214.532 44.72C214.532 44.892 214.446 46.096 214.274 48.332H179.272C179.902 51.1987 181.393 53.4633 183.744 55.126C186.094 56.7887 189.018 57.62 192.516 57.62C194.924 57.62 197.045 57.276 198.88 56.588C200.772 55.8427 202.52 54.696 204.126 53.148L211.264 60.888C206.906 65.876 200.542 68.37 192.172 68.37C186.954 68.37 182.339 67.3667 178.326 65.36C174.312 63.296 171.216 60.458 169.038 56.846C166.859 53.234 165.77 49.1347 165.77 44.548C165.77 40.0187 166.83 35.948 168.952 32.336C171.13 28.6667 174.083 25.8287 177.81 23.822C181.594 21.758 185.808 20.726 190.452 20.726C194.981 20.726 199.08 21.7007 202.75 23.65C206.419 25.5993 209.286 28.4087 211.35 32.078C213.471 35.69 214.532 39.904 214.532 44.72ZM190.538 30.874C187.499 30.874 184.948 31.734 182.884 33.454C180.82 35.174 179.558 37.5247 179.1 40.506H201.89C201.431 37.582 200.17 35.26 198.106 33.54C196.042 31.7627 193.519 30.874 190.538 30.874Z" fill="url(#paint4_linear_5403_69773)"></path> <path d="M249.952 20.726C254.252 20.726 258.15 21.7293 261.648 23.736C265.202 25.6853 267.983 28.466 269.99 32.078C271.996 35.6327 273 39.7893 273 44.548C273 49.3067 271.996 53.492 269.99 57.104C267.983 60.6587 265.202 63.4393 261.648 65.446C258.15 67.3953 254.252 68.37 249.952 68.37C244.046 68.37 239.402 66.5067 236.02 62.78V84.366H222.604V21.414H235.418V26.746C238.743 22.7327 243.588 20.726 249.952 20.726ZM247.63 57.362C251.07 57.362 253.879 56.2153 256.058 53.922C258.294 51.5713 259.412 48.4467 259.412 44.548C259.412 40.6493 258.294 37.5533 256.058 35.26C253.879 32.9093 251.07 31.734 247.63 31.734C244.19 31.734 241.352 32.9093 239.116 35.26C236.937 37.5533 235.848 40.6493 235.848 44.548C235.848 48.4467 236.937 51.5713 239.116 53.922C241.352 56.2153 244.19 57.362 247.63 57.362Z" fill="url(#paint5_linear_5403_69773)"></path> <path d="M366.65 20.726C370.95 20.726 374.848 21.7293 378.346 23.736C381.9 25.6853 384.681 28.466 386.688 32.078C388.694 35.6327 389.698 39.7893 389.698 44.548C389.698 49.3067 388.694 53.492 386.688 57.104C384.681 60.6587 381.9 63.4393 378.346 65.446C374.848 67.3953 370.95 68.37 366.65 68.37C360.286 68.37 355.441 66.3633 352.116 62.35V67.682H339.302V3.87H352.718V26.316C356.1 22.5893 360.744 20.726 366.65 20.726ZM364.328 57.362C367.768 57.362 370.577 56.2153 372.756 53.922C374.992 51.5713 376.11 48.4467 376.11 44.548C376.11 40.6493 374.992 37.5533 372.756 35.26C370.577 32.9093 367.768 31.734 364.328 31.734C360.888 31.734 358.05 32.9093 355.814 35.26C353.635 37.5533 352.546 40.6493 352.546 44.548C352.546 48.4467 353.635 51.5713 355.814 53.922C358.05 56.2153 360.888 57.362 364.328 57.362Z" fill="url(#paint6_linear_5403_69773)"></path> <path fill-rule="evenodd" clip-rule="evenodd" d="M287.055 57.7753C283.334 51.7241 282 44.1385 282 37.5L289 37.5C289 43.3736 290.207 49.5381 293.018 54.1089C295.709 58.4863 299.893 61.5 306.541 61.5C313.501 61.5 317.257 59.0388 319.518 55.3348C321.99 51.2851 323 45.2272 323 37.5H330C330 45.5289 329.01 53.2209 325.493 58.9823C321.764 65.0892 315.54 68.5 306.541 68.5C297.231 68.5 290.894 64.0198 287.055 57.7753Z" fill="url(#paint7_linear_5403_69773)"></path> <path d="M323 22H326.333C330.567 22 334 25.4325 334 29.6667V37.6667C334 41.7168 330.717 45 326.667 45C324.642 45 323 43.3584 323 41.3333V22Z" fill="url(#paint8_linear_5403_69773)"></path> <path d="M317 26C317 23.7909 318.791 22 321 22V45C318.791 45 317 43.2091 317 41V26Z" fill="url(#paint9_linear_5403_69773)"></path> <path d="M289 22H285.667C281.432 22 278 25.4325 278 29.6667V37.6667C278 41.7168 281.283 45 285.333 45C287.358 45 289 43.3584 289 41.3333V22Z" fill="url(#paint10_linear_5403_69773)"></path> <path d="M295 26C295 23.7909 293.209 22 291 22V45C293.209 45 295 43.2091 295 41V26Z" fill="url(#paint11_linear_5403_69773)"></path> <defs> <linearGradient id="paint0_linear_5403_69773" x1="62.5" y1="48.5" x2="323.5" y2="49.5" gradientUnits="userSpaceOnUse"> <stop stop-color="#079CFA"></stop> <stop offset="0.541667" stop-color="#AC69B4"></stop> <stop offset="1" stop-color="#D7395B"></stop> </linearGradient> <linearGradient id="paint1_linear_5403_69773" x1="62.5" y1="48.5" x2="323.5" y2="49.5" gradientUnits="userSpaceOnUse"> <stop stop-color="#079CFA"></stop> <stop offset="0.541667" stop-color="#AC69B4"></stop> <stop offset="1" stop-color="#D7395B"></stop> </linearGradient> <linearGradient id="paint2_linear_5403_69773" x1="62.5" y1="48.5" x2="323.5" y2="49.5" gradientUnits="userSpaceOnUse"> <stop stop-color="#079CFA"></stop> <stop offset="0.541667" stop-color="#AC69B4"></stop> <stop offset="1" stop-color="#D7395B"></stop> </linearGradient> <linearGradient id="paint3_linear_5403_69773" x1="62.5" y1="48.5" x2="323.5" y2="49.5" gradientUnits="userSpaceOnUse"> <stop stop-color="#079CFA"></stop> <stop offset="0.541667" stop-color="#AC69B4"></stop> <stop offset="1" stop-color="#D7395B"></stop> </linearGradient> <linearGradient id="paint4_linear_5403_69773" x1="62.5" y1="48.5" x2="323.5" y2="49.5" gradientUnits="userSpaceOnUse"> <stop stop-color="#079CFA"></stop> <stop offset="0.541667" stop-color="#AC69B4"></stop> <stop offset="1" stop-color="#D7395B"></stop> </linearGradient> <linearGradient id="paint5_linear_5403_69773" x1="62.5" y1="48.5" x2="323.5" y2="49.5" gradientUnits="userSpaceOnUse"> <stop stop-color="#079CFA"></stop> <stop offset="0.541667" stop-color="#AC69B4"></stop> <stop offset="1" stop-color="#D7395B"></stop> </linearGradient> <linearGradient id="paint6_linear_5403_69773" x1="62.5" y1="48.5" x2="323.5" y2="49.5" gradientUnits="userSpaceOnUse"> <stop stop-color="#079CFA"></stop> <stop offset="0.541667" stop-color="#AC69B4"></stop> <stop offset="1" stop-color="#D7395B"></stop> </linearGradient> <linearGradient id="paint7_linear_5403_69773" x1="62.5" y1="48.5" x2="323.5" y2="49.5" gradientUnits="userSpaceOnUse"> <stop stop-color="#079CFA"></stop> <stop offset="0.541667" stop-color="#AC69B4"></stop> <stop offset="1" stop-color="#D7395B"></stop> </linearGradient> <linearGradient id="paint8_linear_5403_69773" x1="62.5" y1="48.5" x2="323.5" y2="49.5" gradientUnits="userSpaceOnUse"> <stop stop-color="#079CFA"></stop> <stop offset="0.541667" stop-color="#AC69B4"></stop> <stop offset="1" stop-color="#D7395B"></stop> </linearGradient> <linearGradient id="paint9_linear_5403_69773" x1="62.5" y1="48.5" x2="323.5" y2="49.5" gradientUnits="userSpaceOnUse"> <stop stop-color="#079CFA"></stop> <stop offset="0.541667" stop-color="#AC69B4"></stop> <stop offset="1" stop-color="#D7395B"></stop> </linearGradient> <linearGradient id="paint10_linear_5403_69773" x1="62.5" y1="48.5" x2="323.5" y2="49.5" gradientUnits="userSpaceOnUse"> <stop stop-color="#079CFA"></stop> <stop offset="0.541667" stop-color="#AC69B4"></stop> <stop offset="1" stop-color="#D7395B"></stop> </linearGradient> <linearGradient id="paint11_linear_5403_69773" x1="62.5" y1="48.5" x2="323.5" y2="49.5" gradientUnits="userSpaceOnUse"> <stop stop-color="#079CFA"></stop> <stop offset="0.541667" stop-color="#AC69B4"></stop> <stop offset="1" stop-color="#D7395B"></stop> </linearGradient> </defs> </svg> 